<svg width="312" height="103" viewBox="0 0 312 103" fill="none" xmlns="http://www.w3.org/2000/svg">
<path d="M40.2 32.2H66.504V40.264H49.16V50.76H66.184V58.696H49.16V77H40.2V32.2ZM87.758 77.832C84.3873 77.832 81.358 77.064 78.67 75.528C75.982 73.9493 73.87 71.8373 72.334 69.192C70.798 66.504 70.03 63.5813 70.03 60.424C70.03 57.2667 70.798 54.344 72.334 51.656C73.87 48.968 75.982 46.856 78.67 45.32C81.358 43.7413 84.3873 42.952 87.758 42.952C91.1287 42.952 94.158 43.7413 96.846 45.32C99.534 46.856 101.646 48.968 103.182 51.656C104.718 54.344 105.486 57.2667 105.486 60.424C105.486 63.5813 104.718 66.504 103.182 69.192C101.646 71.8373 99.534 73.9493 96.846 75.528C94.158 77.064 91.1287 77.832 87.758 77.832ZM78.67 60.424C78.67 62.1733 79.0327 63.7733 79.758 65.224C80.526 66.6747 81.5927 67.8267 82.958 68.68C84.366 69.5333 85.966 69.96 87.758 69.96C89.55 69.96 91.1287 69.5333 92.494 68.68C93.902 67.8267 94.9687 66.6747 95.694 65.224C96.462 63.7733 96.846 62.1733 96.846 60.424C96.846 58.6747 96.462 57.0747 95.694 55.624C94.926 54.1733 93.8593 53.0213 92.494 52.168C91.1287 51.272 89.55 50.824 87.758 50.824C85.966 50.824 84.3873 51.272 83.022 52.168C81.6567 53.0213 80.59 54.1733 79.822 55.624C79.054 57.0747 78.67 58.6747 78.67 60.424ZM121.662 77.768C119.273 77.768 117.118 77.2133 115.198 76.104C113.278 74.952 111.763 73.352 110.654 71.304C109.545 69.2133 108.99 66.8027 108.99 64.072V43.72H117.63V61.96C117.63 67.464 119.849 70.216 124.286 70.216C126.249 70.216 127.891 69.5333 129.214 68.168C130.537 66.76 131.198 64.6907 131.198 61.96V43.72H139.838V77H131.454V72.008C130.643 73.9707 129.449 75.4213 127.87 76.36C126.291 77.2987 124.222 77.768 121.662 77.768ZM144.935 43.72H153.447V48.584C155.196 44.8293 158.588 42.952 163.623 42.952C166.012 42.952 168.167 43.528 170.087 44.68C172.007 45.7893 173.522 47.3893 174.631 49.48C175.74 51.528 176.295 53.9173 176.295 56.648V77H167.655V58.76C167.655 55.9867 167.015 53.9173 165.735 52.552C164.455 51.1867 162.706 50.504 160.487 50.504C158.524 50.504 156.882 51.208 155.559 52.616C154.236 53.9813 153.575 56.0293 153.575 58.76V77H144.935V43.72ZM196.291 77.832C193.304 77.832 190.552 77.064 188.035 75.528C185.517 73.9493 183.512 71.8373 182.019 69.192C180.568 66.5467 179.843 63.6453 179.843 60.488C179.843 57.3307 180.568 54.4293 182.019 51.784C183.512 49.096 185.517 46.9627 188.035 45.384C190.552 43.8053 193.304 43.016 196.291 43.016C199.021 43.016 201.219 43.528 202.883 44.552C204.547 45.5333 205.848 46.9627 206.787 48.84V30.28H215.427V77H207.043V71.56C206.061 73.5653 204.717 75.1227 203.011 76.232C201.347 77.2987 199.107 77.832 196.291 77.832ZM188.483 60.424C188.483 62.1307 188.867 63.7307 189.635 65.224C190.445 66.6747 191.533 67.848 192.899 68.744C194.307 69.5973 195.907 70.024 197.699 70.024C199.533 70.024 201.155 69.5973 202.563 68.744C204.013 67.8907 205.123 66.7387 205.891 65.288C206.659 63.8373 207.043 62.2373 207.043 60.488C207.043 58.7387 206.659 57.1387 205.891 55.688C205.123 54.1947 204.013 53.0213 202.563 52.168C201.155 51.272 199.533 50.824 197.699 50.824C195.907 50.824 194.307 51.272 192.899 52.168C191.491 53.0213 190.403 54.1733 189.635 55.624C188.867 57.0747 188.483 58.6747 188.483 60.424ZM220.56 43.72H228.944V50.056C229.541 47.624 230.693 45.7893 232.4 44.552C234.149 43.3147 236.432 42.7813 239.248 42.952V51.08H238.032C235.472 51.08 233.36 51.8907 231.696 53.512C230.032 55.0907 229.2 57.2453 229.2 59.976V77H220.56V43.72ZM246.327 90.376C243.938 90.376 242.018 90.1627 240.567 89.736L241.847 81.48C243.042 81.7787 244.343 81.928 245.751 81.928C247.33 81.928 248.652 81.4587 249.719 80.52C250.828 79.624 251.639 78.408 252.151 76.872L252.599 75.464L239.415 43.72H249.847L256.311 62.728C256.908 64.3493 257.378 66.12 257.719 68.04C258.06 66.12 258.53 64.3493 259.127 62.728L265.591 43.72H275.831L261.111 79.112C259.575 82.7387 257.634 85.512 255.287 87.432C252.983 89.3947 249.996 90.376 246.327 90.376Z" fill="black"/>
</svg>
