<svg width="312" height="103" viewBox="0 0 312 103" fill="none" xmlns="http://www.w3.org/2000/svg">
<path d="M3.2 32.2H29.504V40.264H12.16V50.76H29.184V58.696H12.16V77H3.2V32.2ZM50.758 77.832C47.3873 77.832 44.358 77.064 41.67 75.528C38.982 73.9493 36.87 71.8373 35.334 69.192C33.798 66.504 33.03 63.5813 33.03 60.424C33.03 57.2667 33.798 54.344 35.334 51.656C36.87 48.968 38.982 46.856 41.67 45.32C44.358 43.7413 47.3873 42.952 50.758 42.952C54.1287 42.952 57.158 43.7413 59.846 45.32C62.534 46.856 64.646 48.968 66.182 51.656C67.718 54.344 68.486 57.2667 68.486 60.424C68.486 63.5813 67.718 66.504 66.182 69.192C64.646 71.8373 62.534 73.9493 59.846 75.528C57.158 77.064 54.1287 77.832 50.758 77.832ZM41.67 60.424C41.67 62.1733 42.0327 63.7733 42.758 65.224C43.526 66.6747 44.5927 67.8267 45.958 68.68C47.366 69.5333 48.966 69.96 50.758 69.96C52.55 69.96 54.1287 69.5333 55.494 68.68C56.902 67.8267 57.9687 66.6747 58.694 65.224C59.462 63.7733 59.846 62.1733 59.846 60.424C59.846 58.6747 59.462 57.0747 58.694 55.624C57.926 54.1733 56.8593 53.0213 55.494 52.168C54.1287 51.272 52.55 50.824 50.758 50.824C48.966 50.824 47.3873 51.272 46.022 52.168C44.6567 53.0213 43.59 54.1733 42.822 55.624C42.054 57.0747 41.67 58.6747 41.67 60.424ZM84.662 77.768C82.2727 77.768 80.118 77.2133 78.198 76.104C76.278 74.952 74.7633 73.352 73.654 71.304C72.5447 69.2133 71.99 66.8027 71.99 64.072V43.72H80.63V61.96C80.63 67.464 82.8487 70.216 87.286 70.216C89.2487 70.216 90.8913 69.5333 92.214 68.168C93.5367 66.76 94.198 64.6907 94.198 61.96V43.72H102.838V77H94.454V72.008C93.6433 73.9707 92.4487 75.4213 90.87 76.36C89.2913 77.2987 87.222 77.768 84.662 77.768ZM107.935 43.72H116.447V48.584C118.196 44.8293 121.588 42.952 126.623 42.952C129.012 42.952 131.167 43.528 133.087 44.68C135.007 45.7893 136.522 47.3893 137.631 49.48C138.74 51.528 139.295 53.9173 139.295 56.648V77H130.655V58.76C130.655 55.9867 130.015 53.9173 128.735 52.552C127.455 51.1867 125.706 50.504 123.487 50.504C121.524 50.504 119.882 51.208 118.559 52.616C117.236 53.9813 116.575 56.0293 116.575 58.76V77H107.935V43.72ZM159.291 77.832C156.304 77.832 153.552 77.064 151.035 75.528C148.517 73.9493 146.512 71.8373 145.019 69.192C143.568 66.5467 142.843 63.6453 142.843 60.488C142.843 57.3307 143.568 54.4293 145.019 51.784C146.512 49.096 148.517 46.9627 151.035 45.384C153.552 43.8053 156.304 43.016 159.291 43.016C162.021 43.016 164.219 43.528 165.883 44.552C167.547 45.5333 168.848 46.9627 169.787 48.84V30.28H178.427V77H170.043V71.56C169.061 73.5653 167.717 75.1227 166.011 76.232C164.347 77.2987 162.107 77.832 159.291 77.832ZM151.483 60.424C151.483 62.1307 151.867 63.7307 152.635 65.224C153.445 66.6747 154.533 67.848 155.899 68.744C157.307 69.5973 158.907 70.024 160.699 70.024C162.533 70.024 164.155 69.5973 165.563 68.744C167.013 67.8907 168.123 66.7387 168.891 65.288C169.659 63.8373 170.043 62.2373 170.043 60.488C170.043 58.7387 169.659 57.1387 168.891 55.688C168.123 54.1947 167.013 53.0213 165.563 52.168C164.155 51.272 162.533 50.824 160.699 50.824C158.907 50.824 157.307 51.272 155.899 52.168C154.491 53.0213 153.403 54.1733 152.635 55.624C151.867 57.0747 151.483 58.6747 151.483 60.424ZM183.56 43.72H191.944V50.056C192.541 47.624 193.693 45.7893 195.4 44.552C197.149 43.3147 199.432 42.7813 202.248 42.952V51.08H201.032C198.472 51.08 196.36 51.8907 194.696 53.512C193.032 55.0907 192.2 57.2453 192.2 59.976V77H183.56V43.72ZM209.327 90.376C206.938 90.376 205.018 90.1627 203.567 89.736L204.847 81.48C206.042 81.7787 207.343 81.928 208.751 81.928C210.33 81.928 211.652 81.4587 212.719 80.52C213.828 79.624 214.639 78.408 215.151 76.872L215.599 75.464L202.415 43.72H212.847L219.311 62.728C219.908 64.3493 220.378 66.12 220.719 68.04C221.06 66.12 221.53 64.3493 222.127 62.728L228.591 43.72H238.831L224.111 79.112C222.575 82.7387 220.634 85.512 218.287 87.432C215.983 89.3947 212.996 90.376 209.327 90.376Z" fill="white"/>
</svg>
